<?xml version="1.0" encoding="utf-8"?>
<!-- Generator: Adobe Illustrator 18.1.1, SVG Export Plug-In . SVG Version: 6.00 Build 0)  -->
<!DOCTYPE svg PUBLIC "-//W3C//DTD SVG 1.1//EN" "http://www.w3.org/Graphics/SVG/1.1/DTD/svg11.dtd">
<svg version="1.1" id="Layer_1" xmlns="http://www.w3.org/2000/svg" xmlns:xlink="http://www.w3.org/1999/xlink" x="0px" y="0px"
	 viewBox="0 0 100 49.2" style="enable-background:new 0 0 100 49.2;" xml:space="preserve">
<style type="text/css">
	.st0{fill:none;stroke:#000000;stroke-width:3;stroke-miterlimit:10;}
</style>
<g>
	<polygon class="st0" points="7.9,31.7 15.1,33 32.8,32.9 50.5,33.1 68.2,33.1 86,33.1 91.9,31.7 93.5,28.1 93.3,24.6 93,21.1 
		93.2,17.5 86,16.1 68.2,16.2 50.5,16.2 32.8,16.2 15.1,16.1 9.1,17.5 8.4,21 9,24.6 8.3,28.1 	"/>
</g>
<g>
	<path d="M42.2,25.5c-0.2-0.2-0.3-0.3-0.5-0.5c-0.2-0.1-0.3-0.3-0.5-0.4s-0.3-0.3-0.5-0.4s-0.3-0.3-0.4-0.5
		c-0.1-0.2-0.3-0.4-0.3-0.6s-0.1-0.5,0-0.7c0.1-0.3,0.2-0.5,0.4-0.7s0.4-0.3,0.7-0.5c0.3-0.1,0.5-0.2,0.8-0.2s0.5-0.1,0.8-0.1
		s0.5,0,0.8,0s0.5,0,0.8,0c0.1,0,0.2,0,0.3,0.1s0.1,0.2,0.1,0.3s0,0.2-0.1,0.3s-0.2,0.1-0.3,0.1c-0.2,0-0.4,0-0.6,0s-0.4,0-0.6,0
		c-0.3,0-0.5,0-0.8,0s-0.5,0.1-0.8,0.2c-0.1,0-0.2,0.1-0.3,0.1s-0.2,0.1-0.3,0.2s-0.1,0.1-0.2,0.2s-0.1,0.2-0.1,0.3
		c0,0.1,0,0.2,0.1,0.3s0.1,0.2,0.2,0.3s0.1,0.2,0.2,0.2s0.1,0.1,0.2,0.2c0.1,0.1,0.3,0.3,0.5,0.4s0.3,0.3,0.5,0.4
		c0.2,0.1,0.3,0.3,0.5,0.5c0.2,0.2,0.3,0.3,0.4,0.5c0.1,0.2,0.2,0.4,0.3,0.6s0.1,0.4,0,0.7c0,0.2-0.1,0.4-0.3,0.6
		c-0.1,0.2-0.3,0.3-0.4,0.4s-0.4,0.2-0.5,0.3c-0.2,0.1-0.4,0.2-0.6,0.3c-0.1,0.1-0.2,0.1-0.3,0s-0.2-0.1-0.2-0.2
		c0-0.1-0.1-0.2-0.1-0.3c0-0.1,0.1-0.2,0.2-0.2c0.2-0.1,0.3-0.2,0.5-0.3s0.3-0.2,0.5-0.3c0.1-0.1,0.3-0.2,0.4-0.3s0.2-0.3,0.2-0.4
		c0-0.2-0.1-0.3-0.2-0.5S42.3,25.6,42.2,25.5z"/>
	<path d="M44.5,22.5c0-0.1,0-0.2,0-0.3s0-0.2,0-0.3c0-0.1,0-0.2,0-0.4s0-0.3,0.1-0.4s0.1-0.2,0.2-0.3s0.2-0.2,0.3-0.2
		c0.2-0.1,0.4-0.1,0.6,0s0.4,0.2,0.6,0.2c0.2,0.1,0.4,0.2,0.5,0.3s0.4,0.2,0.5,0.3c0.1,0,0.2,0.1,0.3,0.1s0.2,0.1,0.3,0.2
		S48,22,48,22.1s0.1,0.2,0.1,0.3c0,0.1,0,0.3-0.1,0.4s-0.1,0.2-0.2,0.4c-0.3,0.7-0.7,1.3-1.1,1.8c-0.2,0.2-0.4,0.4-0.6,0.6
		c-0.2,0.2-0.5,0.3-0.7,0.3c0.1,0.4,0.1,0.7,0.2,1.1c0.1,0.4,0.2,0.7,0.3,1.1c0,0.1,0,0.2,0,0.3c-0.1,0.1-0.1,0.1-0.2,0.2
		c-0.1,0-0.2,0-0.3,0s-0.2-0.1-0.2-0.2c-0.2-0.8-0.4-1.6-0.5-2.4c-0.1-0.8-0.2-1.6-0.2-2.4c0-0.1,0-0.2,0-0.3s0-0.2,0-0.3
		c0,0,0-0.1,0-0.1S44.5,22.6,44.5,22.5L44.5,22.5z M45.2,21.6c0,0.1,0,0.3,0,0.5c0,0.1,0,0.1,0,0.1s0,0,0,0l0,0.2c0,0.2,0,0.4,0,0.6
		c0,0.3,0,0.6,0,0.9s0,0.6,0.1,0.9c0,0.1,0,0.2,0,0.2s0,0.2,0,0.2c0.1,0,0.1,0,0.1-0.1c0,0,0.1,0,0.1,0c0,0,0.1,0,0.1-0.1
		c0.2-0.1,0.3-0.3,0.4-0.4s0.2-0.3,0.3-0.4c0.2-0.3,0.4-0.6,0.6-0.9c0-0.1,0.1-0.1,0.1-0.2s0.1-0.1,0.1-0.2c0,0,0-0.1,0-0.1
		s0-0.1,0-0.1c0-0.1,0.1-0.1,0.1-0.2c0,0,0-0.1,0-0.1c-0.1-0.1-0.2-0.1-0.2-0.1c-0.2-0.1-0.4-0.2-0.5-0.3s-0.4-0.2-0.5-0.3
		c-0.1-0.1-0.2-0.1-0.3-0.1s-0.2-0.1-0.3-0.1c0,0,0,0-0.1,0s0,0-0.1,0c0,0-0.1,0-0.1,0s0,0,0,0C45.2,21.4,45.2,21.5,45.2,21.6
		C45.2,21.5,45.2,21.5,45.2,21.6L45.2,21.6z"/>
	<path d="M48.7,28c0,0.1,0,0.2-0.1,0.3c-0.1,0.1-0.2,0.1-0.3,0.1s-0.2,0-0.3-0.1C48,28.3,48,28.2,48,28c0-0.5,0.1-1,0.2-1.5
		s0.3-0.9,0.4-1.4c0-0.1-0.1-0.2,0-0.3c0-0.1,0.1-0.2,0.3-0.3c0.1-0.3,0.3-0.6,0.4-0.9s0.3-0.6,0.4-0.9s0.3-0.6,0.4-0.9
		s0.2-0.6,0.3-1c0-0.1,0.1-0.2,0.1-0.3s0.1-0.1,0.3-0.1c0.1,0,0.2,0,0.3,0.1s0.1,0.2,0.1,0.3c0,0.4,0,0.7,0,1s0.1,0.6,0.1,0.9
		s0.1,0.6,0.2,0.9s0.2,0.6,0.2,0.9c0.1,0.3,0.1,0.6,0.2,0.9s0.2,0.6,0.3,0.8c0.1,0.1,0.1,0.3,0.2,0.4s0.1,0.3,0.2,0.4
		c0.1,0.1,0.1,0.2,0.2,0.4s0.1,0.3,0.1,0.4c0,0.1,0,0.2,0,0.3c0,0.1-0.1,0.2-0.2,0.2c-0.1,0-0.2,0-0.3,0c-0.1-0.1-0.2-0.1-0.2-0.2
		c0-0.2-0.1-0.3-0.2-0.4s-0.2-0.2-0.2-0.4c-0.1-0.1-0.2-0.3-0.2-0.4s-0.1-0.3-0.2-0.5c-0.1-0.2-0.1-0.3-0.2-0.5s-0.1-0.3-0.1-0.5
		c-0.3,0-0.6,0-0.9,0s-0.6,0-0.9-0.1c-0.2,0.4-0.3,0.8-0.4,1.3S48.7,27.6,48.7,28z M49.7,24.6C49.6,24.6,49.6,24.6,49.7,24.6
		c0,0.1,0,0.1,0,0.1c0.2,0,0.4,0,0.6,0s0.4,0,0.6,0c-0.1-0.3-0.1-0.6-0.2-0.9s-0.2-0.6-0.2-0.9c-0.1,0.3-0.2,0.6-0.4,0.8
		S49.8,24.3,49.7,24.6z"/>
	<path d="M53.2,26.6c-0.2-0.4-0.3-0.8-0.3-1.2c0-0.2-0.1-0.5-0.1-0.7s0-0.5,0.1-0.7c0-0.1,0.1-0.3,0.1-0.4s0.1-0.3,0.2-0.4
		c0-0.1,0.1-0.2,0.1-0.3s0-0.2,0.1-0.3c0.1-0.2,0.2-0.4,0.3-0.6s0.3-0.3,0.5-0.4c0.2-0.1,0.4-0.2,0.6-0.3s0.4-0.1,0.7-0.2
		c0.2,0,0.4-0.1,0.6-0.1s0.4,0,0.6,0c0.1,0,0.2,0.1,0.3,0.1s0.1,0.2,0.1,0.3c0,0.1,0,0.2-0.1,0.3s-0.2,0.1-0.3,0.1c0,0,0,0-0.1,0
		s0,0-0.1,0c-0.2,0-0.4,0-0.6,0s-0.4,0.1-0.6,0.1C55.2,22,55.1,22,55,22s-0.2,0.1-0.3,0.1c-0.1,0-0.1,0.1-0.2,0.1
		c-0.1,0-0.1,0-0.1,0.1c-0.1,0.1-0.2,0.2-0.2,0.3S54,22.8,54,22.9s0,0.2-0.1,0.3s0,0.2-0.1,0.3c-0.1,0.1-0.1,0.3-0.2,0.4
		s-0.1,0.3-0.1,0.4c0,0.1,0,0.2,0,0.3s0,0.2,0,0.3c0,0.2,0,0.3,0.1,0.5c0,0.2,0.1,0.4,0.1,0.5c0.1,0.2,0.1,0.3,0.2,0.5
		c0.1,0.2,0.2,0.3,0.3,0.4c0.2,0.1,0.3,0.2,0.6,0.3c0.2,0.1,0.4,0.1,0.6,0.1c0.3,0,0.5,0,0.8,0c0.2,0,0.5-0.1,0.7-0.3
		c0.1-0.1,0.2-0.1,0.3,0c0.1,0,0.2,0.1,0.2,0.2c0,0.1,0.1,0.2,0.1,0.3s-0.1,0.2-0.2,0.3c-0.3,0.2-0.6,0.3-1,0.4c-0.4,0-0.7,0-1.1,0
		c-0.2,0-0.5-0.1-0.7-0.2s-0.4-0.2-0.6-0.3C53.6,27.3,53.4,27,53.2,26.6z"/>
	<path d="M58.1,22.3c-0.1,0-0.2-0.1-0.2-0.3c0-0.1,0-0.2,0-0.3s0.1-0.2,0.2-0.2c0.6-0.1,1.3-0.2,1.9-0.2s1.3,0,1.9,0
		c0.1,0,0.2,0,0.3,0.1s0.1,0.2,0.1,0.3s0,0.2-0.1,0.3s-0.2,0.1-0.3,0.1c-0.5,0-1,0-1.5,0s-1,0-1.5,0.1c0,0.3,0,0.5,0,0.8
		s0,0.5,0.1,0.8c0.5,0,1-0.1,1.5-0.1s1,0,1.5,0c0.1,0,0.2,0.1,0.3,0.1s0.1,0.2,0.1,0.3s0,0.2-0.1,0.3s-0.2,0.1-0.3,0.1
		c-0.5,0-1,0-1.5,0s-1,0.1-1.5,0.1c0,0.5,0.1,0.9,0.1,1.4c0,0.5,0.1,0.9,0.1,1.4c0.2-0.1,0.5-0.1,0.7-0.2s0.5-0.1,0.7-0.1
		s0.5,0,0.7,0s0.5,0,0.7,0.1c0.1,0,0.2,0.1,0.2,0.2c0.1,0.1,0.1,0.2,0,0.3c0,0.1-0.1,0.2-0.2,0.2c-0.1,0-0.2,0.1-0.3,0
		c-0.2,0-0.4-0.1-0.6,0c-0.2,0-0.4,0-0.6,0.1C60.3,28,60,28,59.8,28c-0.2,0.1-0.5,0.1-0.7,0.2c-0.1,0-0.2,0-0.3-0.1
		c-0.1,0-0.2,0-0.2-0.1s-0.1-0.1-0.1-0.3c0-0.6,0-1.1-0.1-1.6c0-0.5-0.1-1.1-0.1-1.6c-0.1-0.1-0.1-0.2-0.1-0.3s0-0.2,0.1-0.3
		C58.1,23.4,58.1,22.9,58.1,22.3z"/>
</g>
<g>
</g>
<g>
</g>
<g>
</g>
<g>
</g>
<g>
</g>
<g>
</g>
</svg>
