<?xml version="1.0" encoding="utf-8"?>
<!-- Generator: Adobe Illustrator 18.1.1, SVG Export Plug-In . SVG Version: 6.00 Build 0)  -->
<!DOCTYPE svg PUBLIC "-//W3C//DTD SVG 1.1//EN" "http://www.w3.org/Graphics/SVG/1.1/DTD/svg11.dtd">
<svg version="1.1" id="Layer_1" xmlns="http://www.w3.org/2000/svg" xmlns:xlink="http://www.w3.org/1999/xlink" x="0px" y="0px"
	 viewBox="0 0 159.9 106.4" style="enable-background:new 0 0 159.9 106.4;" xml:space="preserve">
<style type="text/css">
	.st0{fill:none;stroke:#000000;stroke-width:3;stroke-miterlimit:10;}
	.st1{fill:none;stroke:#000000;stroke-width:3;stroke-linecap:round;stroke-linejoin:round;stroke-miterlimit:10;}
</style>
<g>
	<g>
		<g>
			<polygon class="st0" points="71.6,49.5 73,50.9 76.6,50.8 80.1,51 83.7,50.9 87.2,51 88.4,49.5 88.7,46 88.7,42.4 88.6,38.9 
				88.7,35.4 87.2,33.9 83.7,34.1 80.1,34 76.6,34.1 73,34 71.8,35.4 71.7,38.9 71.8,42.4 71.7,46 			"/>
		</g>
		<g>
			<polygon class="st1" points="80.1,68.2 79.2,65.3 78.1,62.4 77.3,59.5 80.1,59.5 83,59.5 82.1,62.4 81,65.3 			"/>
		</g>
		<g>
			<polygon class="st1" points="105.1,63.9 102.2,64.8 99.3,65.9 96.3,66.7 96.3,63.9 96.3,61 99.3,61.9 102.2,63 			"/>
		</g>
		<g>
			<polygon class="st1" points="54.8,63.9 57.8,64.8 60.7,65.7 63.7,66.8 63.6,63.9 63.7,60.9 60.7,62 57.7,62.8 			"/>
		</g>
		<g>
			<polygon class="st1" points="80.1,38 79.2,41 78.3,43.9 77.2,46.9 80.1,46.9 83.1,46.9 82,43.9 81.2,41 			"/>
		</g>
		<g>
			<polygon class="st0" points="71.6,71 73,72.3 76.6,72.2 80.1,72.4 83.7,72.3 87.2,72.4 88.4,71 88.7,67.4 88.7,63.9 88.6,60.3 
				88.7,56.8 87.2,55.3 83.7,55.5 80.1,55.5 76.6,55.5 73,55.4 71.8,56.8 71.7,60.3 71.8,63.9 71.7,67.4 			"/>
		</g>
		<g>
			<polygon class="st0" points="50.7,71 52.1,72.3 55.7,72.2 59.2,72.4 62.8,72.3 66.3,72.4 67.5,71 67.8,67.4 67.8,63.9 67.7,60.3 
				67.8,56.8 66.3,55.3 62.8,55.5 59.2,55.5 55.7,55.5 52.1,55.4 50.9,56.8 50.8,60.3 50.9,63.9 50.8,67.4 			"/>
		</g>
		<g>
			<polygon class="st0" points="92.2,71 93.6,72.3 97.2,72.2 100.7,72.4 104.3,72.3 107.8,72.4 109,71 109.3,67.4 109.3,63.9 
				109.2,60.3 109.3,56.8 107.8,55.3 104.3,55.5 100.7,55.5 97.2,55.5 93.6,55.4 92.4,56.8 92.3,60.3 92.4,63.9 92.3,67.4 			"/>
		</g>
	</g>
</g>
<g>
</g>
<g>
</g>
<g>
</g>
<g>
</g>
<g>
</g>
<g>
</g>
</svg>
